<?xml version="1.0"?><svg width="315.40283" height="327.31006" xmlns="http://www.w3.org/2000/svg" xmlns:xlink="http://www.w3.org/1999/xlink">
 <defs>
  <linearGradient xlink:href="#linearGradient6907" id="linearGradient6840" x1="0.535489" y1="0.208515" x2="0.535489" y2="1.235032"/>
  <linearGradient xlink:href="#linearGradient6907" id="linearGradient6838" x1="0.5251" y1="0.097796" x2="0.5251" y2="1.069927"/>
  <linearGradient id="linearGradient6907">
   <stop stop-color="#dce7ec" id="stop6909" offset="0"/>
   <stop stop-color="#839297" id="stop6911" offset="1"/>
  </linearGradient>
  <linearGradient xlink:href="#linearGradient6907" id="linearGradient6836" x1="0.434694" y1="0.145582" x2="0.434694" y2="0.966896"/>
  <linearGradient id="linearGradient6943">
   <stop stop-color="#ffffff" id="stop6945" offset="0"/>
   <stop stop-color="#585858" id="stop6947" offset="1"/>
  </linearGradient>
  <radialGradient xlink:href="#linearGradient6943" id="radialGradient6834" gradientUnits="userSpaceOnUse" gradientTransform="matrix(0.623003,0,0,0.394051,-460.5314,-80.62546)" cx="792.81458" cy="316.90707" fx="792.81458" fy="316.90707" r="91.468323"/>
 </defs>
 <metadata id="metadata2282">image/svg+xml</metadata>
 <g>
  <title>Layer 1</title>
  <g externalResourcesRequired="false" id="layer1">
   <g externalResourcesRequired="false" transform="matrix(5.41371 0 0 5.41371 194.629 103.998)" id="g6804">
    <path fill="#c6d2d7" fill-rule="nonzero" stroke="#616b6d" stroke-width="0.999999" stroke-linejoin="round" marker-start="none" marker-mid="none" marker-end="none" stroke-miterlimit="4" stroke-dashoffset="0" d="m-14.949678,-14.976374l-20.485918,19.416779l-0.01548,0.061941l57.218269,0l-0.030941,-0.061941l-20.485939,-19.416779c-5.181061,-4.91066 -10.8766,-5.045561 -16.199991,0z" id="path7143"/>
    <rect fill="url(#radialGradient6834)" fill-rule="nonzero" stroke="#616b6d" stroke-width="0.999999" stroke-linejoin="round" stroke-miterlimit="4" stroke-dashoffset="0" id="rect7145" width="57.251301" height="36.211601" x="-35.45105" y="4.482973"/>
    <rect fill="#ffffff" fill-rule="nonzero" stroke-width="0.4" stroke-miterlimit="4" stroke-dashoffset="0" id="rect7151" width="47.530247" height="30.732763" x="-23.49354" y="1.541089" transform="rotate(-15.4097 -6.45185 15.6358) matrix(0.91075 0.412957 -0.396227 0.918152 0 0)"/>
    <path fill="url(#linearGradient6836)" fill-rule="nonzero" stroke="#616b6d" stroke-width="0.999999" stroke-linejoin="round" marker-start="none" marker-mid="none" marker-end="none" stroke-miterlimit="4" stroke-dashoffset="0" d="m-35.451077,4.519096l0,33.414211l0.01545,2.72517l28.613129,-18.0697l-28.597668,-18.069681l-0.03091,0z" id="path7153"/>
    <path fill="url(#linearGradient6838)" fill-rule="nonzero" stroke="#616b6d" stroke-width="0.999999" stroke-linejoin="round" marker-start="none" marker-mid="none" marker-end="none" stroke-miterlimit="4" stroke-dashoffset="0" d="m21.800232,4.579056l0,33.414211l-0.01545,2.725166l-28.613121,-18.069689l28.59766,-18.069689l0.03091,0z" id="path7155"/>
    <path fill="url(#linearGradient6840)" fill-rule="nonzero" stroke="#616b6d" stroke-width="0.999999" stroke-linejoin="round" marker-start="none" marker-mid="none" marker-end="none" stroke-miterlimit="4" stroke-dashoffset="0" d="m-14.932959,21.270597l-20.499868,19.41678l-0.015491,0.061935l57.257229,0l-0.030968,-0.061935l-20.499882,-19.41678c-5.184589,-4.910671 -10.883999,-5.045563 -16.21102,0z" id="path7157"/>
   </g>
  </g>
 </g>
</svg>